<svg width="170" height="80" viewBox="0 0 170 80" fill="none" xmlns="http://www.w3.org/2000/svg">
<path fill-rule="evenodd" clip-rule="evenodd" d="M124.604 20.0464H118.08C117.993 19.3766 117.815 18.7721 117.545 18.2328C117.276 17.6935 116.919 17.2325 116.476 16.8498C116.032 16.4671 115.506 16.1757 114.897 15.9756C114.297 15.7669 113.631 15.6625 112.901 15.6625C111.605 15.6625 110.487 15.98 109.547 16.615C108.617 17.2499 107.899 18.1676 107.395 19.3679C106.899 20.5683 106.651 22.0209 106.651 23.7257C106.651 25.5001 106.903 26.9875 107.408 28.1879C107.921 29.3795 108.639 30.2798 109.561 30.8887C110.491 31.4888 111.592 31.7889 112.861 31.7889C113.575 31.7889 114.223 31.6976 114.806 31.5149C115.397 31.3323 115.915 31.067 116.358 30.719C116.81 30.3624 117.18 29.9319 117.467 29.4274C117.763 28.9142 117.967 28.3357 118.08 27.6921L124.604 27.7312C124.491 28.9142 124.147 30.0797 123.573 31.2279C123.008 32.376 122.229 33.4242 121.238 34.3723C120.246 35.3117 119.037 36.0597 117.611 36.6164C116.193 37.1731 114.566 37.4514 112.731 37.4514C110.313 37.4514 108.147 36.9208 106.233 35.8597C104.329 34.7898 102.824 33.2328 101.719 31.1887C100.614 29.1447 100.062 26.657 100.062 23.7257C100.062 20.7857 100.623 18.2937 101.745 16.2496C102.867 14.2056 104.385 12.6529 106.299 11.5918C108.212 10.5306 110.356 10 112.731 10C114.349 10 115.845 10.2262 117.219 10.6785C118.594 11.1221 119.803 11.7744 120.846 12.6355C121.89 13.488 122.738 14.5361 123.391 15.7799C124.043 17.0238 124.447 18.4459 124.604 20.0464ZM125.722 37.0861H132.663L134.421 31.4758H143.649L145.41 37.0861H152.351L143.336 10.3653H134.738L125.722 37.0861ZM142.109 26.57L139.135 17.0977H138.926L135.958 26.57H142.109ZM15.4958 48.5242V43.2792H38.0806V48.5242H29.9782V70H23.6112V48.5242H15.4958ZM40.5 43.2792V70H46.9584V60.8539H50.2663L55.152 70H62.1976L56.6586 59.8345C58.1304 59.1565 59.2678 58.1786 60.0709 56.9006C60.8798 55.6045 61.2843 54.0302 61.2843 52.1775C61.2843 50.3508 60.8885 48.7721 60.097 47.4413C59.3054 46.1018 58.179 45.0754 56.7177 44.3621C55.2651 43.6402 53.5385 43.2792 51.5379 43.2792H40.5ZM46.9584 55.7654H50.1419C51.1161 55.7654 51.9294 55.6393 52.5817 55.3871C53.2428 55.1261 53.7429 54.7347 54.0822 54.2128C54.4214 53.6822 54.591 53.0038 54.591 52.1775C54.591 51.3511 54.4214 50.6683 54.0822 50.129C53.7429 49.581 53.2428 49.1722 52.5817 48.9026C51.9207 48.6242 51.1074 48.4851 50.1419 48.4851H46.9584V55.7654ZM69.8717 70H62.9306L71.9462 43.2792H80.5444L89.56 70H82.6189L80.8574 64.3897H71.6295L69.8717 70ZM76.3431 50.0116L79.3171 59.4839H73.1666L76.1344 50.0116H76.3431ZM100.157 62.8501L94.1811 43.2792H86.9529L95.9686 70H104.567L113.582 43.2792H106.354L100.379 62.8501H100.157ZM115.724 70V43.2792H134.356V48.5242H122.183V54.0041H133.404V59.2621H122.183V64.755H134.356V70H115.724ZM137.666 70V43.2792H144.124V64.755H155.24V70H137.666ZM76.6856 10.3653V37.0861H88.6761C90.6505 37.0861 92.3293 36.7643 93.7123 36.1206C95.0953 35.4683 96.1521 34.5811 96.8828 33.459C97.6134 32.3282 97.9788 31.0452 97.9788 29.61C97.9788 28.3227 97.7004 27.2094 97.1437 26.2699C96.587 25.3218 95.8477 24.5825 94.9257 24.0519C94.0124 23.5213 93.0164 23.2299 91.9379 23.1777V22.9168C92.9208 22.708 93.7862 22.3427 94.5343 21.8208C95.2823 21.2989 95.8695 20.6422 96.2957 19.8507C96.7219 19.0505 96.935 18.1415 96.935 17.1238C96.935 15.7843 96.5914 14.6057 95.9042 13.588C95.2258 12.5703 94.2081 11.7788 92.8512 11.2134C91.503 10.648 89.8286 10.3653 87.828 10.3653H76.6856ZM87.1365 31.8803H83.144V25.5132H87.2539C88.0802 25.5132 88.7891 25.6524 89.3806 25.9307C89.9721 26.2004 90.4287 26.5874 90.7506 27.0919C91.0724 27.5877 91.2333 28.1792 91.2333 28.8664C91.2333 29.8145 90.8984 30.5538 90.2287 31.0844C89.5676 31.615 88.5369 31.8803 87.1365 31.8803ZM86.719 21.3511H83.144V15.4929H86.8233C87.9019 15.4929 88.7587 15.7495 89.3937 16.2627C90.0286 16.7759 90.3461 17.4804 90.3461 18.3764C90.3461 19.0026 90.1895 19.5376 89.8764 19.9812C89.572 20.4248 89.1458 20.764 88.5978 20.9989C88.0498 21.2337 87.4235 21.3511 86.719 21.3511ZM54.7443 37.0861V10.3653H73.3758V15.6103H61.2027V21.0902H72.4234V26.3482H61.2027V31.8411H73.3758V37.0861H54.7443ZM15 10.3653L22.7762 37.0861H28.9867L33.8011 20.8814H34.0099L38.8243 37.0861H45.0478L52.811 10.3653H45.6872L41.6425 27.9139H41.4207L36.815 10.3653H30.9959L26.3903 27.8748H26.1685L22.1369 10.3653H15Z" fill="#292929"/>
</svg>
